<svg width="29" height="29" viewBox="0 0 29 29" fill="none" xmlns="http://www.w3.org/2000/svg">
<path d="M14.4999 0C22.5131 0 28.9999 6.48682 28.9999 14.5317C28.9999 22.5131 22.4813 29.0317 14.4999 28.9999C6.48682 28.9999 0 22.5131 0 14.5317C0 6.48682 6.48682 0 14.4999 0ZM7.56795 8.83988C6.99559 8.55369 6.39142 8.29931 5.85085 8.01313C5.27849 7.72694 4.76972 7.40896 4.19735 7.09098C2.76644 9.12606 1.97148 11.3837 1.81249 13.864C3.4342 13.864 5.0241 13.864 6.64581 13.864C6.7412 12.1469 7.02738 10.4616 7.56795 8.83988ZM24.8025 7.05918C23.7214 7.75874 22.6085 8.33111 21.4319 8.80808C21.9725 10.4616 22.2905 12.1469 22.3541 13.864C23.9758 13.864 25.5657 13.864 27.1874 13.864C27.0284 11.3519 26.2652 9.09426 24.8025 7.05918ZM1.81249 15.1359C1.93969 17.648 2.73464 19.9056 4.19735 21.9407C5.24669 21.2411 6.35962 20.6688 7.53615 20.1918C6.99559 18.5383 6.7094 16.853 6.64581 15.1359C5.0559 15.1359 3.4342 15.1359 1.81249 15.1359ZM24.8025 21.9407C26.2334 19.9056 27.0284 17.648 27.1874 15.1677C25.5657 15.1677 23.9758 15.1677 22.3541 15.1677C22.3223 16.0263 22.2269 16.8848 22.0997 17.7433C21.9407 18.6019 21.7499 19.4286 21.4637 20.2236C22.0361 20.478 22.6085 20.7324 23.149 21.0186C23.7214 21.2729 24.262 21.6227 24.8025 21.9407ZM13.864 18.8881C13.864 17.6162 13.864 16.376 13.864 15.1359C11.8925 15.1359 9.88921 15.1359 7.91773 15.1359C7.98133 16.7258 8.23571 18.2839 8.74448 19.7784C10.398 19.2379 12.1151 18.9517 13.864 18.8881ZM15.1359 15.1359C15.1359 16.376 15.1359 17.6162 15.1359 18.8881C16.8848 18.9517 18.6019 19.2379 20.2872 19.7784C20.7642 18.2521 21.0504 16.7258 21.114 15.1359C19.1107 15.1359 17.1392 15.1359 15.1359 15.1359ZM7.91773 13.864C9.92101 13.864 11.8925 13.864 13.864 13.864C13.864 12.6239 13.864 11.3837 13.864 10.1118C12.1151 10.0482 10.4298 9.76202 8.77628 9.22145C8.26751 10.7478 7.98133 12.2741 7.91773 13.864ZM20.2236 9.25325C18.5701 9.79382 16.853 10.08 15.1359 10.1436C15.1359 11.4155 15.1359 12.6557 15.1359 13.8958C17.1392 13.8958 19.1107 13.8958 21.0822 13.8958C21.0186 12.2741 20.7324 10.7478 20.2236 9.25325ZM15.1359 27.1556C15.3903 27.1874 15.4221 27.1556 15.5175 27.0602C17.2028 25.5339 18.5701 23.7214 19.524 21.6545C19.6194 21.4319 19.7148 21.2093 19.842 20.955C19.0471 20.5734 15.7719 20.0328 15.1359 20.1282C15.1359 22.4813 15.1359 24.8343 15.1359 27.1556ZM13.864 27.1556C13.864 24.8025 13.864 22.4813 13.864 20.1282C12.2423 20.1918 10.6842 20.4462 9.15786 20.955C9.22145 21.0822 9.25325 21.1775 9.28505 21.2729C10.239 23.467 11.6063 25.3749 13.387 26.9966C13.546 27.1556 13.6732 27.1874 13.864 27.1556ZM19.7784 8.07672C19.7784 8.04492 19.7784 8.04492 19.7784 8.04492C19.7784 8.01313 19.7466 7.98133 19.7466 7.94953C18.7291 5.59647 17.2664 3.59319 15.3267 1.90789C15.2949 1.87609 15.1995 1.84429 15.1359 1.81249C15.1359 4.19735 15.1359 6.51861 15.1359 8.87167C16.7258 8.80808 18.2839 8.55369 19.7784 8.07672ZM9.18966 8.04492C10.716 8.5219 12.2741 8.80808 13.864 8.87167C13.864 6.51861 13.864 4.16555 13.864 1.81249C13.8004 1.84429 13.705 1.87609 13.6732 1.90789C12.1151 3.27521 10.8432 4.86511 9.88921 6.6776C9.63483 7.12278 9.44404 7.56795 9.18966 8.04492ZM17.4254 2.16227C18.9517 3.78398 20.1282 5.59647 20.9868 7.63155C22.0361 7.21817 23.0536 6.67761 24.0076 6.07344C22.1951 4.10196 20.0328 2.79823 17.4254 2.16227ZM4.9923 6.07344C5.94625 6.7094 6.96379 7.21817 8.01313 7.63155C8.87168 5.59647 10.0482 3.78398 11.5427 2.16227C8.96707 2.79823 6.8048 4.10196 4.9923 6.07344ZM21.0186 21.4001C20.1918 23.4034 19.0471 25.2159 17.6162 26.8058C20.1282 26.1699 22.2587 24.8661 24.0076 22.9264C23.0536 22.3223 22.0679 21.8135 21.0186 21.4001ZM4.9923 22.9264C6.7412 24.8661 8.87167 26.1699 11.3837 26.8058C9.92101 25.1841 8.77628 23.4034 7.98133 21.4001C6.93199 21.8135 5.94625 22.3223 4.9923 22.9264Z" fill="white"/>
</svg>
