<svg width="30" height="25" viewBox="0 0 30 25" fill="none" xmlns="http://www.w3.org/2000/svg">
<path d="M23.6592 0H5.97827V1.49608H23.6592V0Z" fill="white"/>
<path d="M26.2978 4.13562H3.33984V5.6317H26.2978V4.13562Z" fill="white"/>
<path d="M14.8187 21.246C17.3576 21.246 19.4158 19.1878 19.4158 16.6489C19.4158 14.11 17.3576 12.0519 14.8187 12.0519C12.2798 12.0519 10.2217 14.11 10.2217 16.6489C10.2217 19.1878 12.2798 21.246 14.8187 21.246Z" fill="white"/>
<path d="M23.3056 8.27112H6.41357H0.0212402V14.3642V18.8797V25H6.22316H22.8976H29.6164V19.2605V14.4186V8.27112H23.3056ZM28.1203 9.7672V13.521C27.7939 13.6298 27.4403 13.7114 27.0866 13.7114C25.4546 13.7114 24.0945 12.3785 24.0945 10.7192C24.0945 10.3928 24.1489 10.0664 24.2577 9.7672H28.1203ZM22.3808 23.5311H6.73999C6.79439 23.2863 6.82159 23.0143 6.82159 22.7423C6.82159 20.2669 4.80869 18.254 2.33336 18.254C2.06135 18.254 1.78933 18.2812 1.51732 18.3356V15.0443C1.87094 15.1259 2.25176 15.1803 2.63258 15.1803C5.1079 15.1803 7.12081 13.1674 7.12081 10.692C7.12081 10.3656 7.09361 10.0664 7.012 9.73999H22.7344C22.68 10.0392 22.6256 10.3656 22.6256 10.692C22.6256 13.1674 24.6385 15.1803 27.1138 15.1803C27.4675 15.1803 27.8211 15.1259 28.1475 15.0715V18.4716C27.7123 18.3356 27.2771 18.2812 26.8146 18.2812C24.3393 18.254 22.3264 20.2669 22.3264 22.7423C22.3264 23.0143 22.3536 23.2591 22.3808 23.5311ZM1.51732 9.7672H5.46152C5.57033 10.0664 5.62473 10.3928 5.62473 10.7192C5.62473 12.3513 4.29186 13.7114 2.63258 13.7114C2.25176 13.7114 1.87094 13.6298 1.51732 13.4938V9.7672ZM1.51732 23.5311V19.8861C1.78933 19.8045 2.06135 19.7773 2.33336 19.7773C3.96544 19.7773 5.32552 21.1102 5.32552 22.7695C5.32552 23.0415 5.29831 23.2863 5.21671 23.5583H1.51732V23.5311ZM28.1203 23.5311H23.9041C23.8497 23.2863 23.7953 23.0143 23.7953 22.7423C23.7953 21.1102 25.1281 19.7501 26.7874 19.7501C27.2499 19.7501 27.7123 19.8589 28.1203 20.0493V23.5311Z" fill="white"/>
</svg>
