<svg width="53" height="17" viewBox="0 0 53 17" fill="none" xmlns="http://www.w3.org/2000/svg">
<path d="M49.9424 3.39319L46.4823 16.9999H46.4497H49.159L52.6191 3.39319H49.9424Z" fill="black"/>
<path d="M7.14857 11.1206C6.75686 11.3221 6.29987 11.4229 5.84289 11.4229C4.86362 11.4229 4.30871 11.2549 4.27607 10.4486V10.415C4.27607 10.3814 4.27607 10.3478 4.27607 10.3142V7.96245V7.69368V6.04743V5.3419V5.03953V3.42688L1.86055 3.76285C3.49266 3.42688 4.40663 2.1166 4.40663 0.806324V0H1.72998V3.79644L1.56677 3.83004V10.8518C1.6647 12.834 2.93774 14.0099 4.99419 14.0099C5.74496 14.0099 6.46309 13.8419 7.14857 13.5395V11.1206Z" fill="black"/>
<path d="M7.57297 2.8894L0 4.09889V6.0811L7.57297 4.87162V2.8894Z" fill="black"/>
<path d="M7.57297 5.77869L0 6.98817V8.8696L7.57297 7.66011V5.77869Z" fill="black"/>
<path d="M16.0925 6.68574C15.9946 4.50195 14.6563 3.19167 12.4693 3.19167C11.2941 3.15808 10.1843 3.69562 9.49882 4.63634C8.81334 5.57705 8.42163 6.95452 8.42163 8.63436C8.42163 10.3142 8.78069 11.6917 9.49882 12.6324C10.2169 13.5731 11.3268 14.1106 12.4693 14.077C14.6563 14.077 15.9946 12.7668 16.0925 10.5494V13.8755H18.8018V3.46045L16.0925 3.89721M16.2231 8.63436C16.2231 10.583 15.2438 11.8597 13.7096 11.8597C12.1102 11.8597 11.1636 10.6502 11.1636 8.63436C11.1636 6.61855 12.1102 5.40906 13.7096 5.40906C14.4278 5.37547 15.1133 5.71143 15.5702 6.31618C16.0272 6.95452 16.2557 7.79444 16.2231 8.63436Z" fill="black"/>
<path d="M26.6686 3.19174C24.4816 3.19174 23.1759 4.50201 23.0454 6.68581V0.403198L20.3361 0.839957V13.8755H23.0454V10.583C23.1759 12.7668 24.5142 14.0435 26.6686 14.0435C29.2147 14.0435 30.7489 12.0277 30.7489 8.63442C30.7489 5.24114 29.2147 3.19174 26.6686 3.19174ZM25.4609 11.8261C23.9267 11.8261 22.9148 10.583 22.9148 8.63442C22.8821 7.7945 23.1106 6.98818 23.5676 6.31624C24.0246 5.7451 24.7101 5.40913 25.4282 5.40913C26.995 5.40913 27.9417 6.61861 27.9417 8.63442C27.9417 10.6502 27.0277 11.8261 25.4609 11.8261Z" fill="black"/>
<path d="M38.0933 3.19174C35.9063 3.19174 34.568 4.50201 34.47 6.68581V0.403198L31.7607 0.839957V13.8755H34.47V10.583C34.568 12.8004 35.9063 14.1107 38.0933 14.1107C40.6394 14.1107 42.1736 12.0949 42.1736 8.70162C42.1736 5.30834 40.6394 3.19174 38.0933 3.19174ZM36.8855 11.8261C35.3514 11.8261 34.3721 10.583 34.3721 8.63442C34.3395 7.7945 34.568 6.98818 35.025 6.31624C35.4819 5.74509 36.1674 5.40913 36.8855 5.40913C38.485 5.40913 39.4316 6.61861 39.4316 8.63442C39.4316 10.6502 38.4524 11.8261 36.8855 11.8261Z" fill="black"/>
<path d="M42.1736 3.39319H45.0461L47.3963 13.8418H44.8176L42.1736 3.39319Z" fill="black"/>
</svg>
