<svg xmlns="http://www.w3.org/2000/svg" width="22.839" height="22.833" viewBox="0 0 22.839 22.833">
  <path id="upload" d="M9.663,8.52l2.615-2.626V16.845a1.142,1.142,0,1,0,2.284,0V5.893L17.177,8.52A1.147,1.147,0,1,0,18.8,6.9L14.23,2.33a1.181,1.181,0,0,0-1.622,0L8.041,6.9A1.147,1.147,0,0,0,9.663,8.52ZM23.7,15.7a1.142,1.142,0,0,0-1.142,1.142v4.568a1.142,1.142,0,0,1-1.142,1.142H5.426a1.142,1.142,0,0,1-1.142-1.142V16.845a1.142,1.142,0,1,0-2.284,0v4.568a3.426,3.426,0,0,0,3.426,3.426H21.413a3.426,3.426,0,0,0,3.426-3.426V16.845A1.142,1.142,0,0,0,23.7,15.7Z" transform="translate(-2 -2.005)"/>
</svg>
