<svg width="83" height="83" viewBox="0 0 83 83" fill="none" xmlns="http://www.w3.org/2000/svg">
<path d="M43.8191 0.0380859C45.388 0.248184 46.9672 0.404064 48.526 0.681936C58.0448 2.37628 66.015 6.87645 72.4196 14.0943C78.2064 20.5075 81.7632 28.6207 82.5585 37.2221C83.609 47.9643 80.9048 57.7508 74.3748 66.3648C68.1464 74.5891 59.9221 79.8416 49.8137 81.9358C39.8137 84.0097 30.2711 82.5221 21.3081 77.5881C20.9205 77.3432 20.4822 77.19 20.0265 77.14C19.5709 77.0901 19.1098 77.1449 18.6784 77.3001C13.836 78.8555 8.96985 80.3194 4.10709 81.8206C3.40902 82.0375 2.72789 82.1595 2.12809 81.6173C1.5283 81.0751 1.52152 80.4245 1.72484 79.6891C3.16842 74.5078 4.58828 69.3164 6.03864 64.1384C6.12375 63.8896 6.1515 63.6246 6.11982 63.3635C6.08813 63.1024 5.99782 62.8518 5.85565 62.6305C3.00838 57.8893 1.15236 52.6198 0.399865 47.1408C0.233819 45.992 0.132159 44.8399 0 43.6945V39.008C0.0677737 38.4285 0.132159 37.8456 0.196544 37.2628C1.18943 28.3573 4.60183 20.499 10.593 13.8368C16.9671 6.76124 24.8662 2.34578 34.263 0.681936C35.8184 0.407453 37.3975 0.248184 38.9699 0.0380859H43.8191ZM5.49645 78.0151C5.88953 77.9168 6.14707 77.8626 6.39784 77.7847C10.3287 76.5749 14.2833 75.4126 18.1803 74.1113C19.8035 73.5624 21.0742 73.7725 22.5585 74.6095C30.8167 79.3265 39.6951 80.7633 48.9902 78.8555C58.9032 76.8465 67.615 70.9883 73.2153 62.5657C78.8156 54.1431 80.8473 43.8433 78.8649 33.9249C75.6761 17.7711 61.9723 5.18889 45.6253 3.47082C37.1535 2.5796 29.1732 4.14856 21.9045 8.6284C10.532 15.626 4.23586 25.87 3.28364 39.2079C2.71095 47.2154 4.68655 54.6976 8.93257 61.5359C9.20793 61.9452 9.38564 62.4123 9.45203 62.9011C9.51842 63.3899 9.47171 63.8874 9.31549 64.3553C8.01763 68.8487 6.77737 73.3624 5.49645 78.0151Z" fill="#FAFAFA"/>
<path d="M52.5993 66.53C44.9985 66.2758 38.3024 63.5818 32.3485 58.9901C25.1572 53.4508 19.5863 46.0811 16.2184 37.6516C13.8938 31.962 14.6867 26.4689 17.6687 21.2368C18.5701 19.6577 19.7562 18.2412 20.8575 16.7841C21.0982 16.4287 21.4593 16.1724 21.8741 16.0623C23.449 15.875 25.0325 15.7675 26.6183 15.7404C27.0272 15.7496 27.4265 15.867 27.7753 16.0807C28.1241 16.2944 28.4101 16.5967 28.604 16.9569C30.661 20.2744 32.579 23.6699 33.9344 27.3466C34.5546 29.0409 34.1649 30.6133 33.2228 32.0365C32.4713 33.1177 31.6519 34.1499 30.7694 35.127C30.6054 35.2808 30.4922 35.481 30.445 35.7008C30.3978 35.9206 30.4187 36.1495 30.5051 36.3571C31.176 38.3293 32.4163 39.8983 33.7853 41.3791C37.4786 45.3092 41.7739 48.6264 46.5098 51.2063C47.8314 51.9451 48.0754 51.9383 49.0615 50.82C50.5051 49.1867 51.8877 47.5025 53.2296 45.7878C54.3546 44.351 55.7067 43.8529 57.4112 44.5238C58.2011 44.8649 58.9596 45.2742 59.6783 45.7472C62.4773 47.4652 65.2594 49.2104 68.0517 50.9352C69.1869 51.6333 69.3665 52.0637 69.109 53.4124C68.5295 56.4147 67.5129 59.2206 65.5034 61.5893C63.0127 64.534 59.7155 65.8726 55.9812 66.2962C54.8596 66.4554 53.7277 66.4554 52.5993 66.53ZM53.0805 63.2565C53.6464 63.2565 54.2123 63.2904 54.7748 63.2565C60.1324 62.8871 64.0802 60.4947 65.5509 54.6526C65.9168 53.2057 66.1507 53.5954 64.7749 52.738C62.1701 51.1182 59.5721 49.4894 56.9809 47.8515C56.3607 47.4585 55.9846 47.4822 55.4797 48.1328C54.1242 49.8678 52.8026 51.674 51.1896 53.1548C48.621 55.5269 47.6959 55.3575 45.2662 54.1003C39.3631 51.0505 34.192 47.0518 30.0171 41.8502C28.7752 40.3528 27.8526 38.6172 27.3062 36.7502C26.9402 35.4422 27.0147 34.3036 28.1059 33.2904C28.8877 32.5113 29.604 31.6692 30.2475 30.7726C31.0269 29.756 31.2641 28.6885 30.6339 27.4754C29.2784 24.9101 27.9229 22.3381 26.6284 19.739C26.2218 18.9223 25.6593 18.7631 24.829 18.797C23.6193 18.8478 22.6671 19.2002 22.0537 20.332C21.2099 21.8908 20.1594 23.3513 19.4444 24.961C17.7331 28.8275 17.5739 32.7821 19.2716 36.7163C22.7857 44.8661 27.9094 51.7926 35.0696 57.0959C40.3933 61.0335 46.3879 63.2124 53.0805 63.2565Z" fill="#FAFAFA"/>
</svg>
