<svg width="90" height="75" viewBox="0 0 90 75" fill="none" xmlns="http://www.w3.org/2000/svg">
<path d="M45 69.248C27.4082 69.248 13.0962 54.9365 13.0962 37.3442C13.0962 19.7524 27.4082 5.44043 45 5.44043C62.5918 5.44043 76.9033 19.7524 76.9033 37.3442C76.9033 54.9365 62.5918 69.248 45 69.248ZM45 7.44043C28.5107 7.44043 15.0962 20.855 15.0962 37.3442C15.0962 53.833 28.5107 67.248 45 67.248C61.4883 67.248 74.9033 53.833 74.9033 37.3442C74.9033 20.855 61.4883 7.44043 45 7.44043Z" fill="#A4A4A4"/>
<g clip-path="url(#clip0_287_245)">
<path d="M43.2255 52.3745C43.2255 51.2499 43.2255 51.2499 42.1904 50.8634C39.1681 49.7343 37.0711 46.7512 37.0163 43.499C36.997 42.3562 37.7133 41.5263 38.741 41.5007C39.7702 41.4752 40.522 42.26 40.5665 43.4057C40.6644 45.9678 42.7184 47.9014 45.2291 47.7947C47.6508 47.6909 49.5431 45.5589 49.4333 43.0584C49.331 40.6918 47.4031 38.8574 44.9725 38.8003C42.2171 38.7341 40.0089 37.5749 38.4325 35.2865C35.2989 30.7351 37.5457 24.4683 42.8444 22.9271C43.1469 22.8399 43.2522 22.7121 43.2344 22.3903C43.2033 21.849 43.2122 21.3032 43.23 20.759C43.2626 19.7531 44.0531 18.9877 45.0244 18.9998C45.9676 19.0118 46.7387 19.7726 46.7729 20.7499C46.7921 21.2927 46.7996 21.8385 46.7699 22.3813C46.7521 22.6986 46.8515 22.8249 47.154 22.9196C50.206 23.8668 52.0864 25.9373 52.822 29.0782C52.9377 29.5699 52.9896 30.0736 52.991 30.5818C52.994 31.6628 52.2421 32.4868 51.2367 32.4988C50.249 32.5094 49.4852 31.7365 49.4408 30.678C49.3651 28.8572 48.551 27.4934 46.9464 26.665C45.3314 25.832 43.3887 26.1267 42.0421 27.3551C40.6896 28.588 40.2136 30.5066 40.832 32.2282C41.4563 33.9678 43.0594 35.1436 44.8909 35.1947C48.3878 35.2925 50.9356 36.9163 52.3445 40.161C54.2501 44.5485 51.8328 49.6952 47.2949 51.0409C46.8811 51.1642 46.7298 51.3145 46.7684 51.7506C46.8114 52.2347 46.7892 52.7249 46.7743 53.212C46.7447 54.2224 45.9706 54.9968 45.0036 54.9983C44.0397 54.9998 43.2611 54.2209 43.2285 53.2165C43.2181 52.9369 43.227 52.6557 43.2255 52.3745Z" fill="#E20909"/>
</g>
<defs>
<clipPath id="clip0_287_245">
<rect width="16" height="36" fill="white" transform="translate(37 19)"/>
</clipPath>
</defs>
</svg>
