<svg width="91" height="103" viewBox="0 0 91 103" fill="none" xmlns="http://www.w3.org/2000/svg">
<g clip-path="url(#clip0_357_41)">
<path d="M5.27389 102.899C4.87665 102.752 4.47408 102.611 4.08217 102.456C1.57075 101.465 0.0404377 99.1851 0.0244414 96.2765C0.000447013 91.7868 0.0164433 87.2972 0.0164433 82.8023C0.0164433 78.4779 0.0164433 74.1536 0.0164433 69.8293C0.00157538 69.4642 0.0176289 69.0985 0.0644322 68.7362C0.101501 68.4178 0.252085 68.1233 0.488588 67.9069C0.725091 67.6905 1.03167 67.5665 1.35213 67.5578C2.10663 67.4911 2.6665 67.8244 2.88245 68.5496C2.98239 68.9693 3.02366 69.4009 3.00508 69.8319C3.00508 77.4142 3.00508 84.9982 3.00508 92.584V93.9437L35.043 76.3478L3.15971 44.2725C3.10373 44.939 3.01841 45.4669 3.01841 45.9975C3.00775 51.2194 3.00775 56.4421 3.01841 61.6658C3.01841 63.2655 2.53053 63.9986 1.47744 63.9773C0.424349 63.956 0.0191093 63.2788 0.0164433 61.6978C0.0164433 56.475 0.053768 51.2522 0.000447012 46.0321C-0.0208814 43.758 0.72028 41.8997 2.38389 40.3454C4.04751 38.7911 5.64447 37.2128 7.21211 35.5785C7.57572 35.1806 7.79049 34.6691 7.81997 34.1309C7.86796 30.1051 7.83596 26.0794 7.84929 22.0563C7.84929 17.9506 10.55 15.2606 14.6664 15.2446C18.7241 15.2286 22.7845 15.2206 26.8422 15.2446C27.1995 15.2655 27.557 15.2079 27.8896 15.0757C28.2222 14.9435 28.5217 14.74 28.7671 14.4794C32.6595 10.6083 36.5893 6.77722 40.4977 2.93011C43.5557 -0.071857 47.2268 -0.077189 50.2795 2.93011C54.2519 6.81988 58.2029 10.7283 62.1994 14.5887C62.6267 14.9699 63.1734 15.1905 63.7457 15.2126C67.8354 15.2633 71.9278 15.2339 76.0095 15.2419C80.2752 15.2419 82.9252 17.908 82.9412 22.1443C82.9412 23.1414 82.9599 24.1385 82.9412 25.1383C82.9226 26.1381 82.3707 26.7006 81.5229 26.7379C80.6751 26.7753 80.0006 26.1487 79.9659 25.1596C79.9286 24.0932 79.9659 23.0268 79.9659 21.9604C79.9446 19.6302 78.5716 18.2279 76.2334 18.2279C67.6488 18.2172 59.065 18.2172 50.4821 18.2279H15.0396C12.0856 18.2279 10.8406 19.4623 10.8406 22.3896C10.8406 30.4731 10.8406 38.5601 10.8406 46.6506C10.825 46.9407 10.8728 47.2307 10.9805 47.5005C11.0882 47.7703 11.2534 48.0134 11.4645 48.2129C20.1184 56.8278 28.7591 65.4543 37.3864 74.0923C37.8877 74.5908 38.2449 74.6255 38.8261 74.2842C39.9965 73.5857 41.1962 72.9512 42.4066 72.314C43.2987 71.8183 44.3003 71.5531 45.3208 71.5424C46.3413 71.5316 47.3483 71.7758 48.2506 72.2527C49.557 72.9059 50.8367 73.6177 52.0977 74.3536C52.5909 74.6415 52.8975 74.5882 53.2894 74.1856C62.0163 65.4552 70.744 56.7283 79.4727 48.005C79.7758 47.6338 79.9374 47.1671 79.9286 46.688C79.9606 41.8624 79.9446 37.0395 79.9552 32.2167C79.9421 31.8208 79.9981 31.4256 80.1205 31.0489C80.2499 30.753 80.4734 30.5082 80.7564 30.3525C81.0394 30.1969 81.3659 30.1393 81.6851 30.1886C82.0043 30.2378 82.2982 30.3913 82.521 30.625C82.7439 30.8588 82.8832 31.1597 82.9172 31.4808C82.9759 32.374 82.8772 33.2804 82.9679 34.1709C83.0125 34.6739 83.2118 35.1507 83.5384 35.5359C85.1834 37.2315 86.8736 38.8818 88.5772 40.5187C89.296 41.1889 89.8641 42.0042 90.2437 42.9106C90.6234 43.817 90.806 44.7938 90.7794 45.7762C90.767 62.5403 90.767 79.3053 90.7794 96.0712C90.7794 99.5637 89.1318 101.713 85.7672 102.736C85.6797 102.78 85.5982 102.835 85.5246 102.899H67.7581C67.0276 102.44 66.5077 101.833 66.8196 100.929C67.1315 100.025 67.9074 99.849 68.7685 99.905C69.0351 99.921 69.3017 99.905 69.5683 99.905C74.4259 99.905 79.2807 99.905 84.1383 99.905C86.0232 99.905 87.3162 98.8972 87.5721 97.2762C87.4415 97.1909 87.3055 97.0949 87.1642 97.0096C73.8873 89.7224 60.6122 82.4263 47.3388 75.1214C45.9818 74.3722 44.7181 74.4255 43.3771 75.164C31.9699 81.4541 20.5575 87.7327 9.13966 93.9997C7.13746 95.1007 5.14059 96.2072 3.15971 97.3002C3.71692 99.1478 4.85532 99.913 6.96417 99.913C25.024 99.913 43.0847 99.913 61.1463 99.913C62.0074 99.913 62.7806 100.03 63.0978 100.937C63.4151 101.843 62.8819 102.443 62.17 102.912L5.27389 102.899ZM55.8302 76.3798L87.6601 93.8637V44.3578L55.8302 76.3798ZM58.4056 15.2099C58.179 14.9433 58.0723 14.7754 57.9417 14.6447C54.6224 11.3842 51.3139 8.11291 47.9893 4.871C46.3364 3.27137 44.4488 3.29803 42.7932 4.91632C39.5264 8.09603 36.2729 11.2855 33.0328 14.4848C32.8382 14.6741 32.6809 14.898 32.4196 15.2099H58.4056ZM7.78797 39.5136L5.50584 41.7451C6.223 42.5796 6.96417 43.446 7.78797 44.4112V39.5136ZM83.0052 39.2737V44.2352L85.426 41.7504L83.0052 39.2737Z" fill="#FAFAFA"/>
<path d="M45.389 28.3833H67.5385C67.8718 28.3833 68.205 28.3833 68.5356 28.3993C69.3808 28.458 69.8953 28.9006 69.9726 29.7617C70.0499 30.6228 69.5274 31.2067 68.6396 31.3373C68.3087 31.3751 67.9753 31.3876 67.6425 31.3747C52.8122 31.3747 37.98 31.3747 23.1461 31.3747C22.716 31.3925 22.2854 31.3576 21.8638 31.2707C21.1333 31.0814 20.7947 30.5482 20.824 29.7804C20.8181 29.4418 20.9414 29.1136 21.1686 28.8626C21.3959 28.6115 21.7102 28.4564 22.0477 28.4287C22.4105 28.3864 22.7759 28.3721 23.1408 28.386L45.389 28.3833Z" fill="#FAFAFA"/>
<path d="M45.3993 42.812H23.0498C22.7503 42.8299 22.4499 42.8236 22.1514 42.7934C21.3249 42.6601 20.8184 42.1802 20.8184 41.319C20.8184 40.4579 21.3222 39.986 22.1514 39.8394C22.4489 39.8082 22.7485 39.8011 23.0472 39.8181H67.7461C68.0448 39.8011 68.3444 39.8082 68.6419 39.8394C69.4657 39.978 69.975 40.4526 69.975 41.3164C69.975 42.1802 69.4737 42.6494 68.6419 42.7934C68.3443 42.8236 68.0448 42.8299 67.7461 42.812H45.3993Z" fill="#FAFAFA"/>
<path d="M45.4239 51.2927C52.8391 51.2927 60.2542 51.2927 67.6694 51.2927C68.1004 51.272 68.5323 51.307 68.9544 51.3967C69.2659 51.4703 69.5405 51.6537 69.728 51.9131C69.9155 52.1725 70.0033 52.4908 69.9755 52.8097C69.9941 53.13 69.8965 53.4464 69.7006 53.7005C69.5047 53.9547 69.2236 54.1297 68.9091 54.1933C68.5517 54.2687 68.1861 54.2973 67.8214 54.2787C52.8577 54.2769 37.8932 54.276 22.9278 54.276C22.5955 54.286 22.263 54.261 21.936 54.2013C21.6197 54.1482 21.3332 53.9828 21.129 53.7355C20.9248 53.4882 20.8166 53.1756 20.8243 52.855C20.7923 52.0952 21.1468 51.5646 21.8907 51.378C22.281 51.2996 22.6794 51.2691 23.0771 51.2873C30.5278 51.2873 37.9767 51.2891 45.4239 51.2927Z" fill="#FAFAFA"/>
</g>
<defs>
<clipPath id="clip0_357_41">
<rect width="90.7896" height="102.211" fill="white" transform="translate(0 0.688354)"/>
</clipPath>
</defs>
</svg>
