<svg width="90" height="75" viewBox="0 0 90 75" fill="none" xmlns="http://www.w3.org/2000/svg">
<path d="M27.2894 54.1182H86.1568C86.1568 54.1182 86.4551 43.232 77.6567 40.2495C72.6772 38.5616 70.1337 38.4499 67.0797 37.4544C67.0797 37.4544 56.7046 44.2182 46.8047 44.4627C36.9047 44.7071 29.7629 41.1083 21.5048 37.1272C15.2905 34.1314 3.95064 34.5948 3.95064 34.5948C3.86191 36.0672 4.0549 37.6078 4.04477 39.1887C4.04477 39.1887 23.0728 38.6145 27.2894 54.1182Z" fill="#E20909"/>
<path d="M86.6332 54.0571C86.5993 52.2576 86.0182 42.4037 77.456 39.501C74.54 38.5127 72.456 38.0576 70.6161 37.6558C66.9755 36.8603 64.3446 36.2856 57.8642 31.8672C48.1278 25.229 41.956 21.1616 41.8945 21.1216L41.7392 21.0376C41.7123 21.0259 39.0444 19.8569 37.7812 17.7651C36.2558 15.2402 32.7797 12.4448 30.2245 13.7603C29.3561 14.2073 25.2134 16.9257 26.7317 26.8958C26.1388 27.2148 25.5119 27.5573 24.8232 27.9448C21.1884 29.9893 15.7548 28.8745 14.0536 28.4492C13.4609 26.3154 11.3378 19.7676 7.58879 19.689C7.1049 19.6826 6.3842 19.8403 5.6757 20.6699C2.33464 24.5812 1.23588 41.3823 3.4348 54.2529C1.97813 57.4345 2.70005 61.4793 2.73332 61.6572L2.88517 62.4746H86.2333L86.5165 61.9482C86.6108 61.7739 88.732 57.721 86.6332 54.0571ZM7.1967 21.9687C7.39592 21.7354 7.52238 21.689 7.5468 21.689C9.66691 21.7329 11.6401 26.9722 12.2631 29.5024L12.3988 30.0537L12.9418 30.2197C13.2572 30.3169 20.7192 32.5483 25.8036 29.688C30.4413 27.0791 32.8891 26.1025 32.9135 26.0928L32.1801 24.2319C32.109 24.2601 30.8901 24.7509 28.6015 25.9165C27.7413 19.2436 29.7391 16.2595 31.1396 15.5386C32.2558 14.9634 34.746 16.6079 36.0693 18.7993C37.5414 21.2373 40.3202 22.5898 40.8627 22.8369C41.2173 23.0707 42.9389 24.2084 45.74 26.0845L42.0912 30.2246L43.5912 31.5469L47.4149 27.2083C48.3506 27.8369 49.3642 28.5195 50.4703 29.2665L46.5546 33.7095L48.0546 35.0317L52.1403 30.3959C53.1096 31.0522 54.1294 31.7443 55.1999 32.4725L51.5058 36.6645L53.0058 37.9868L56.8663 33.606C63.5715 38.16 66.3534 38.7722 70.1894 39.6094C71.9775 40 74.0038 40.4434 76.8134 41.3955C83.4111 43.6318 84.453 50.6992 84.6103 53.3164H27.5027C23.2931 39.8011 7.97435 38.512 4.29667 38.3983C4.44883 30.3436 5.68626 23.7366 7.1967 21.9687ZM5.30479 53.3164C4.60307 48.9973 4.29661 44.5471 4.28141 40.3914C5.78068 40.4302 9.4102 40.6747 13.2973 42.0039C19.4719 44.116 23.5376 47.9195 25.4084 53.3164H5.30479ZM84.9872 60.4746H4.59416C4.48179 59.3086 4.41764 57.1177 5.15684 55.3164H85.0273C85.9972 57.2972 85.3749 59.491 84.9872 60.4746Z" fill="#A4A4A4"/>
</svg>
