<svg width="90" height="75" viewBox="0 0 90 75" fill="none" xmlns="http://www.w3.org/2000/svg">
<path d="M61.3002 30.7H59.3002V23.3C59.3002 15.4 52.9002 9 45.0002 9C37.1002 9 30.7002 15.4 30.7002 23.3V30.7H28.7002V23.3C28.7002 14.3 36.0002 7 45.0002 7C54.0002 7 61.3002 14.3 61.3002 23.3V30.7Z" fill="#A4A4A4"/>
<path d="M45 51.4C48.5899 51.4 51.5 48.4899 51.5 44.9C51.5 41.3102 48.5899 38.4 45 38.4C41.4101 38.4 38.5 41.3102 38.5 44.9C38.5 48.4899 41.4101 51.4 45 51.4Z" fill="#E20909"/>
<path d="M41.1001 48.8V55.5C41.1001 57.6 42.8001 59.4001 45.0001 59.4001C47.2001 59.4001 48.9001 57.7 48.9001 55.5V48.8" fill="#E20909"/>
<path d="M70.8002 68.0999H19.2002V29.7H70.8002V68.0999ZM21.2002 66.0999H68.8002V31.7H21.2002V66.0999Z" fill="#A4A4A4"/>
</svg>
