<svg width="83" height="83" viewBox="0 0 83 83" fill="none" xmlns="http://www.w3.org/2000/svg">
<g clip-path="url(#clip0_357_58)">
<path d="M82.9998 20.1003V62.8932C82.8656 63.6598 82.7509 64.4285 82.5972 65.1908C80.4756 75.6654 71.593 82.974 60.9071 82.9892C47.974 83.0079 35.0401 83.0079 22.1056 82.9892C21.3241 82.9892 20.5404 82.9372 19.7632 82.8614C8.75034 81.7808 0.112404 72.4539 0.0517869 61.3946C-0.0218196 48.133 -0.0218196 34.8713 0.0517869 21.6097C0.09292 12.0966 6.57895 3.60342 15.7127 0.944166C17.1523 0.524056 18.6526 0.309669 20.1334 0H62.9053C63.0807 0.0592889 63.2601 0.106322 63.4421 0.140759C67.8141 0.617511 71.9412 2.40014 75.286 5.25647C78.6307 8.1128 81.0381 11.9104 82.1945 16.1548C82.5495 17.4454 82.7357 18.7837 82.9998 20.1003ZM4.89033 41.4524C4.89033 47.9359 4.87951 54.4195 4.89033 60.903C4.91415 70.5483 12.4675 78.1146 22.1251 78.1276C35.0611 78.1435 47.997 78.1435 60.933 78.1276C70.5343 78.1124 78.1093 70.5483 78.1266 60.9507C78.1526 47.9836 78.1526 35.0164 78.1266 22.0493C78.1093 12.4452 70.5365 4.88541 60.9352 4.87025C47.9747 4.85004 35.012 4.85004 22.0471 4.87025C21.0756 4.86228 20.1053 4.94274 19.1483 5.11062C10.6078 6.71311 4.89683 13.6103 4.8925 22.3287C4.88817 28.704 4.88745 35.0785 4.89033 41.4524Z" fill="#FAFAFA"/>
<path d="M41.4969 62.1504C30.0814 62.1265 20.8243 52.8386 20.8698 41.4567C20.9153 30.0249 30.2113 20.7695 41.5749 20.8431C47.0149 20.9081 52.2094 23.1181 56.0297 26.9926C59.8499 30.8672 61.9871 36.0934 61.9768 41.5353C61.9666 46.9773 59.8097 52.1953 55.9748 56.0554C52.14 59.9156 46.9372 62.1059 41.4969 62.1504ZM25.73 41.461C25.7213 45.6414 27.37 49.6546 30.3145 52.6212C33.2591 55.5877 37.2594 57.2654 41.4385 57.2866C50.1327 57.3624 57.2682 50.2747 57.3007 41.5325C57.2623 37.376 55.5872 33.4024 52.6387 30.4734C49.6902 27.5445 45.706 25.8966 41.5506 25.8872C37.3953 25.8778 33.4037 27.5077 30.442 30.4232C27.4802 33.3387 25.7871 37.3048 25.73 41.461Z" fill="#FAFAFA"/>
<path d="M64.6589 20.7889C64.0182 20.7981 63.4 20.5523 62.9404 20.1056C62.4808 19.6589 62.2174 19.0478 62.2083 18.4069C62.1991 17.7659 62.4448 17.1476 62.8914 16.6878C63.338 16.2281 63.9489 15.9647 64.5896 15.9555C65.2296 15.9513 65.8455 16.1986 66.3051 16.6441C66.7646 17.0895 67.0309 17.6977 67.0468 18.3376C67.0528 18.6559 66.9956 18.9722 66.8785 19.2682C66.7615 19.5643 66.5868 19.8341 66.3647 20.0621C66.1426 20.2901 65.8774 20.4718 65.5846 20.5965C65.2918 20.7213 64.9772 20.7867 64.6589 20.7889Z" fill="#FAFAFA"/>
</g>
<defs>
<clipPath id="clip0_357_58">
<rect width="83" height="83" fill="white"/>
</clipPath>
</defs>
</svg>
