<svg width="90" height="75" viewBox="0 0 90 75" fill="none" xmlns="http://www.w3.org/2000/svg">
<path d="M26.7954 60.0771C22.8647 60.0771 19.6665 56.8789 19.6665 52.9473C19.6665 49.0166 22.8647 45.8184 26.7954 45.8184C30.7266 45.8184 33.9248 49.0166 33.9248 52.9473C33.9248 56.8789 30.7266 60.0771 26.7954 60.0771ZM26.7954 47.8184C23.9673 47.8184 21.6665 50.1191 21.6665 52.9473C21.6665 55.7764 23.9673 58.0771 26.7954 58.0771C29.6235 58.0771 31.9248 55.7764 31.9248 52.9473C31.9248 50.1191 29.6235 47.8184 26.7954 47.8184Z" fill="#A4A4A4"/>
<path d="M36.9409 69.8027C36.8242 65.377 33.2998 64.2002 32.0562 63.9219L26.7954 68.583L21.5381 63.9248C20.2969 64.21 16.7661 65.4072 16.6504 69.8027L14.6514 69.75C14.7979 64.1768 19.3354 62.1523 21.7139 61.8604L22.1616 61.8047L26.7954 65.9111L31.4297 61.8047L31.8774 61.8604C34.2559 62.1523 38.793 64.1768 38.9399 69.75L36.9409 69.8027Z" fill="#A4A4A4"/>
<path d="M59.9277 60.0771C55.9961 60.0771 52.7979 56.8789 52.7979 52.9473C52.7979 49.0166 55.9961 45.8184 59.9277 45.8184C63.8584 45.8184 67.0566 49.0166 67.0566 52.9473C67.0566 56.8789 63.8584 60.0771 59.9277 60.0771ZM59.9277 47.8184C57.0986 47.8184 54.7979 50.1191 54.7979 52.9473C54.7979 55.7764 57.0986 58.0771 59.9277 58.0771C62.7559 58.0771 65.0566 55.7764 65.0566 52.9473C65.0566 50.1191 62.7559 47.8184 59.9277 47.8184Z" fill="#A4A4A4"/>
<path d="M70.0723 69.8027C69.9561 65.377 66.4316 64.2002 65.1875 63.9219L59.9277 68.583L54.6699 63.9248C53.4287 64.21 49.8984 65.4072 49.7832 69.8027L47.7832 69.75C47.9297 64.1768 52.4668 62.1523 54.8457 61.8604L55.293 61.8047L59.9277 65.9111L64.5605 61.8047L65.0088 61.8604C67.3877 62.1523 71.9248 64.1768 72.0723 69.75L70.0723 69.8027Z" fill="#A4A4A4"/>
<path d="M66.9055 33.8651V41.7941L58.3292 33.8651L34.5923 33.8651C32.6958 33.8651 31.1441 32.3133 31.1441 30.4168L31.144 8.67181C31.144 6.77525 32.6958 5.22352 34.5923 5.22352L70.9008 5.22351C72.7974 5.22351 74.3491 6.77524 74.3491 8.6718L74.3491 30.4168C74.3491 32.3133 72.7974 33.8651 70.9008 33.8651H66.9055V33.8651Z" fill="#E20909"/>
<path d="M37.1494 52.2432V43.0283H19.7861C17.3335 43.0283 15.3379 41.0332 15.3379 38.5801V19.709C15.3379 17.2559 17.3335 15.2603 19.7861 15.2603H31.144V17.2603H19.7861C18.436 17.2603 17.3379 18.3589 17.3379 19.709V38.5801C17.3379 39.9297 18.436 41.0283 19.7861 41.0283H39.1494V47.6709L46.334 41.0283H50.9219C52.2715 41.0283 53.3701 39.9297 53.3701 38.5801V33.8652H55.3701V38.5801C55.3701 41.0332 53.375 43.0283 50.9219 43.0283H47.1172L37.1494 52.2432Z" fill="#A4A4A4"/>
</svg>
