<?xml version="1.0" encoding="UTF-8" standalone="no" ?>
<!DOCTYPE svg PUBLIC "-//W3C//DTD SVG 1.1//EN" "http://www.w3.org/Graphics/SVG/1.1/DTD/svg11.dtd">
<svg xmlns="http://www.w3.org/2000/svg" xmlns:xlink="http://www.w3.org/1999/xlink" version="1.1" width="1080" height="1080" viewBox="0 0 1080 1080" xml:space="preserve">
<desc>Created with Fabric.js 5.2.4</desc>
<defs>
</defs>
<rect x="0" y="0" width="100%" height="100%" fill="transparent"></rect>
<g transform="matrix(1 0 0 1 540 540)" id="a0099d1a-6df7-49d9-a4d6-879930c93d52"  >
</g>
<g transform="matrix(1 0 0 1 540 540)" id="52f3d510-2b08-43e3-8a7c-b3330813c31a"  >
<rect style="stroke: none; stroke-width: 1; stroke-dasharray: none; stroke-linecap: butt; stroke-dashoffset: 0; stroke-linejoin: miter; stroke-miterlimit: 4; fill: rgb(255,255,255); fill-rule: nonzero; opacity: 1; visibility: hidden;" vector-effect="non-scaling-stroke"  x="-540" y="-540" rx="0" ry="0" width="1080" height="1080" />
</g>
<g transform="matrix(NaN NaN NaN NaN 0 0)"  >
<g style=""   >
</g>
</g>
<g transform="matrix(NaN NaN NaN NaN 0 0)"  >
<g style=""   >
</g>
</g>
<g transform="matrix(1 0 0 1 540 540)" id="bf934e32-39d2-4f2f-9ded-02b3146f9547"  >
<path style="stroke: rgb(0,0,0); stroke-width: 0; stroke-dasharray: none; stroke-linecap: butt; stroke-dashoffset: 0; stroke-linejoin: miter; stroke-miterlimit: 4; fill: rgb(40,167,69); fill-rule: nonzero; opacity: 1;" vector-effect="non-scaling-stroke"  transform=" translate(-256, -256)" d="M 64 64 C 64 46.3 49.7 32 32 32 C 14.299999999999997 32 0 46.3 0 64 L 0 400 C 0 444.2 35.8 480 80 480 L 480 480 C 497.7 480 512 465.7 512 448 C 512 430.3 497.7 416 480 416 L 80 416 C 71.2 416 64 408.8 64 400 L 64 64 z M 470.6 150.6 C 483.1 138.1 483.1 117.8 470.6 105.3 C 458.1 92.8 437.8 92.8 425.3 105.3 L 320 210.7 L 262.6 153.29999999999998 C 250.10000000000002 140.79999999999998 229.8 140.79999999999998 217.3 153.29999999999998 L 105.30000000000001 265.29999999999995 C 92.80000000000001 277.79999999999995 92.80000000000001 298.09999999999997 105.30000000000001 310.59999999999997 C 117.80000000000001 323.09999999999997 138.10000000000002 323.09999999999997 150.60000000000002 310.59999999999997 L 240 221.3 L 297.4 278.7 C 309.9 291.2 330.2 291.2 342.7 278.7 L 470.7 150.7 z" stroke-linecap="round" />
</g>
<g transform="matrix(NaN NaN NaN NaN 0 0)"  >
<g style=""   >
</g>
</g>
<g transform="matrix(NaN NaN NaN NaN 0 0)"  >
<g style=""   >
</g>
</g>
</svg>