<?xml version="1.0" encoding="UTF-8" standalone="no" ?>
<!DOCTYPE svg PUBLIC "-//W3C//DTD SVG 1.1//EN" "http://www.w3.org/Graphics/SVG/1.1/DTD/svg11.dtd">
<svg xmlns="http://www.w3.org/2000/svg" xmlns:xlink="http://www.w3.org/1999/xlink" version="1.1" width="1080" height="1080" viewBox="0 0 1080 1080" xml:space="preserve">
<desc>Created with Fabric.js 5.2.4</desc>
<defs>
</defs>
<rect x="0" y="0" width="100%" height="100%" fill="transparent"></rect>
<g transform="matrix(1 0 0 1 540 540)" id="a0099d1a-6df7-49d9-a4d6-879930c93d52"  >
</g>
<g transform="matrix(1 0 0 1 540 540)" id="52f3d510-2b08-43e3-8a7c-b3330813c31a"  >
<rect style="stroke: none; stroke-width: 1; stroke-dasharray: none; stroke-linecap: butt; stroke-dashoffset: 0; stroke-linejoin: miter; stroke-miterlimit: 4; fill: rgb(255,255,255); fill-rule: nonzero; opacity: 1; visibility: hidden;" vector-effect="non-scaling-stroke"  x="-540" y="-540" rx="0" ry="0" width="1080" height="1080" />
</g>
<g transform="matrix(NaN NaN NaN NaN 0 0)"  >
<g style=""   >
</g>
</g>
<g transform="matrix(NaN NaN NaN NaN 0 0)"  >
<g style=""   >
</g>
</g>
<g transform="matrix(NaN NaN NaN NaN 0 0)"  >
<g style=""   >
</g>
</g>
<g transform="matrix(NaN NaN NaN NaN 0 0)"  >
<g style=""   >
</g>
</g>
<g transform="matrix(1 0 0 1 540 540)" id="81787490-49fc-4b30-b78a-b446b3f08059"  >
<path style="stroke: rgb(0,0,0); stroke-width: 0; stroke-dasharray: none; stroke-linecap: butt; stroke-dashoffset: 0; stroke-linejoin: miter; stroke-miterlimit: 4; fill: rgb(255,0,0); fill-rule: nonzero; opacity: 1;" vector-effect="non-scaling-stroke"  transform=" translate(-192, -256)" d="M 153.6 29.9 L 169.6 8.599999999999998 C 173.6 3.2 180 0 186.7 0 C 198.4 0 208 9.6 208 21.3 L 208 43.5 C 208 56.6 213.4 69.2 222.9 78.2 L 307.6 159 C 356.4 205.6 384 270.2 384 337.7 C 384 434 306 512 209.7 512 L 192 512 C 86 512 0 426 0 320 L 0 316.2 C 0 267.4 19.4 220.6 53.9 186.1 L 57.4 182.6 C 61.6 178.4 67.4 176 73.4 176 C 85.9 176 96 186.1 96 198.6 L 96 288 C 96 323.3 124.7 352 160 352 C 195.3 352 224 323.3 224 288 L 224 284.1 C 224 266.1 216.8 248.8 204.1 236.10000000000002 L 165.5 197.50000000000003 C 141.5 173.50000000000003 128 140.8 128 106.80000000000003 C 128 79.10000000000002 137 52.00000000000003 153.6 29.90000000000002 z" stroke-linecap="round" />
</g>
</svg>