<?xml version="1.0" encoding="UTF-8" standalone="no" ?>
<!DOCTYPE svg PUBLIC "-//W3C//DTD SVG 1.1//EN" "http://www.w3.org/Graphics/SVG/1.1/DTD/svg11.dtd">
<svg xmlns="http://www.w3.org/2000/svg" xmlns:xlink="http://www.w3.org/1999/xlink" version="1.1" width="1080" height="1080" viewBox="0 0 1080 1080" xml:space="preserve">
<desc>Created with Fabric.js 5.2.4</desc>
<defs>
</defs>
<g transform="matrix(1 0 0 1 540 540)" id="a0099d1a-6df7-49d9-a4d6-879930c93d52"  >
</g>
<g transform="matrix(1 0 0 1 540 540)" id="52f3d510-2b08-43e3-8a7c-b3330813c31a"  >
<rect style="stroke: none; stroke-width: 1; stroke-dasharray: none; stroke-linecap: butt; stroke-dashoffset: 0; stroke-linejoin: miter; stroke-miterlimit: 4; fill: rgb(255,255,255); fill-rule: nonzero; opacity: 1; visibility: hidden;" vector-effect="non-scaling-stroke"  x="-540" y="-540" rx="0" ry="0" width="1080" height="1080" />
</g>
<g transform="matrix(1 0 0 1 540 540)"  >
<path style="stroke: rgb(0,0,0); stroke-width: 0; stroke-dasharray: none; stroke-linecap: butt; stroke-dashoffset: 0; stroke-linejoin: miter; stroke-miterlimit: 4; fill: rgb(255,193,7); fill-rule: nonzero; opacity: 1;" vector-effect="non-scaling-stroke"  transform=" translate(-192, -256.05)" d="M 0 256 L 28.5 28 C 30.5 12 44.1 0 60.3 0 L 228.9 0 C 243.9 0 256 12.1 256 27.1 C 256 30.3 255.4 33.6 254.3 36.6 L 208 160 L 347.3 160 C 367.5 160 384 176.4 384 196.7 C 384 204.1 381.8 211.29999999999998 377.6 217.39999999999998 L 185.40000000000003 498.4 C 179.50000000000003 507 169.80000000000004 512.1 159.50000000000003 512.1 L 156.60000000000002 512.1 C 140.90000000000003 512.1 128.10000000000002 499.3 128.10000000000002 483.6 C 128.10000000000002 481.3 128.40000000000003 479 129.00000000000003 476.70000000000005 L 176 288 L 32 288 C 14.3 288 0 273.7 0 256 z" stroke-linecap="round" />
</g>
<g transform="matrix(NaN NaN NaN NaN 0 0)"  >
<g style=""   >
</g>
</g>
<g transform="matrix(NaN NaN NaN NaN 0 0)"  >
<g style=""   >
</g>
</g>
</svg>