<svg xmlns="http://www.w3.org/2000/svg" width="15.918" height="22.286" viewBox="0 0 15.918 22.286">
  <path id="a" d="M5.542,22.829l4.648-3.734a1.342,1.342,0,0,1,1.536,0l4.651,3.734a1.848,1.848,0,0,0,1.146.457,1.284,1.284,0,0,0,.578-.136,1.693,1.693,0,0,0,.817-1.6V3.465A2.43,2.43,0,0,0,16.531,1H5.388A2.43,2.43,0,0,0,3,3.465v18.08a1.692,1.692,0,0,0,.815,1.6A1.59,1.59,0,0,0,5.542,22.829ZM4.592,3.465a.809.809,0,0,1,.8-.822H16.531a.81.81,0,0,1,.8.822V21.509L12.7,17.8a2.882,2.882,0,0,0-3.489,0L4.592,21.509Z" transform="translate(-3 -1)"/>
</svg>
