<?xml version="1.0" encoding="utf-8"?>
<!-- Generator: Adobe Illustrator 24.1.0, SVG Export Plug-In . SVG Version: 6.00 Build 0)  -->
<svg version="1.1" id="Layer_1" xmlns="http://www.w3.org/2000/svg" xmlns:xlink="http://www.w3.org/1999/xlink" x="0px" y="0px"
	 viewBox="0 0 922.5 214.5" style="enable-background:new 0 0 922.5 214.5;" xml:space="preserve">
<style type="text/css">
	.st0{fill:#ED1C24;stroke:#FFFFFF;stroke-width:3;stroke-miterlimit:10;}
	.st1{fill:#ED1C24;stroke:#FFFFFF;stroke-width:2.9999;stroke-miterlimit:9.9998;}
</style>
<g id="OgFkrQ.tif_1_">
	<g>
		<path class="st0" d="M915.2,149.8c-6.8-7.9-16-12.4-25.1-16.4c-17.8-7.9-36.2-14.6-55.4-19c-5.9-1.3-11.9-2.6-17.7-4.3
			c-6.4-1.8-8.2-4.3-8-10.9c0.2-5.3-2.1-9.4-5.6-13.1c-6.2-6.6-13.8-11-22.5-13.5c-4.7-1.3-5.1-2.9-1.6-6.3c3.2-3.1,5-6.8,3.3-11.2
			c-1.7-4.8-6.1-5.4-10.3-5.2c-9.2,0.5-17.6,3.4-24.2,10.4c-5.3,5.5-5.2,10.3,0.2,15.5c0.4,0.4,0.5,1,0.9,2.2
			c-30.3,15.2-60.6,29.5-94.6,33.9c-0.3-0.7-0.7-1.3-1-2c1.7-1.4,3.2-3.1,5.2-4.4c8-4.8,14.6-11.1,19.6-18.8c2-3.2,4.3-6.9,1.9-11.3
			c-2.4-4.5-6.7-4.7-10.9-4.5c-3.7,0.2-7.4,0.7-11,1.5c-9.5,2.3-17.4,7.7-24.8,13.9c-9.3,7.8-16.8,16.9-21,28.6
			c-0.8,2.2-3.1,4.2-5.2,5.5c-1.9,1.2-4.5,1.3-6.8,1.9c-11.8,3.1-23.4,6.9-35.7,6.3c-4.8-0.2-9.6-1.5-14.1-3c-1.4-0.5-3.1-4-2.6-5.2
			c1.5-3.5,3.7-7.2,6.4-9.7c3.5-3.2,8.2-5.2,12.2-8c11.3-8.1,22.4-16.3,33.4-24.8c7-5.5,13.5-11.6,20.4-17.1
			c11.8-9.6,22.4-20.4,30.5-33.4c3.5-5.6,3.4-11.2-0.1-14.9c-4.1-4.3-9.3-4.3-14-2c-8.1,3.9-16.4,7.7-23.4,13.2
			c-11.3,8.7-22,18.3-31.9,28.5c-9.7,10-18,21.4-27.4,31.8c-4.4,4.9-6,12.1-12.8,14.9c-4,1.6-7.7,3.9-11.7,5.4
			c-13.5,5.3-26.9,11-40.7,15.3c-9.5,2.9-19.7,4.1-29.6,5.5c-2.6,0.4-5.9-0.9-8.3-2.3c-3.3-2-2.8-5.2,0.5-7.2
			c18.2-10.9,36.4-21.4,54.3-32.7c10.1-6.5,20.7-12.8,27.4-23.3c2.4-3.9,4.6-7.8,2.4-12.8c-1.8-4.3-5.3-6.4-9.3-6.4
			c-6.2,0-12.7-0.1-18.4,1.8c-16.6,5.6-30.1,16.1-42.1,28.6c-8.7,9.1-16,19.4-21.9,30.5c-0.4,0.7-1,1.5-1.8,1.9
			c-10.7,5.4-21.4,10.6-32.2,15.9c-0.8,0.4-2-0.3-3.1-0.5c0.3-0.9,0.3-2.2,0.9-2.6c4.4-3.3,2.3-6.7,0.1-10c-2.3-3.4-4.8-6.5-9.7-4.7
			c-3.7,1.3-7.6,1.8-11,3.8c-13,7.3-25.9,14.9-38.6,22.7c-4.6,2.7-8.7,6.2-13.6,9.6c-0.4-1.7-0.9-2.8-0.7-3.7
			c1.4-6.4-1-11.6-5.5-15.5c-5.3-4.8-9.9-9.2-9.5-17.4c0.1-2.3-3.8-5.7-6.5-6.8c-1.3-0.6-5.2,2.3-6.5,4.6
			c-6.3,10.4-15.3,17.5-26.2,22.5c-16.5,7.5-33.3,14.7-49.9,21.8c-1.7,0.7-3.9,0.3-5.9,0.5c0.5-1.9,0.9-3.9,1.5-5.7
			c0.3-0.8,1.1-1.3,1.6-2.1c3.2-5.4,6.8-10.6,9.6-16.3c2.7-5.6,0.6-10.6-3.3-15c-3.5-3.9-7.8-4.9-12.5-2.7c-3.9,1.8-7.6,4-11.2,6.4
			c-14.3,9.7-28.5,19.8-42.8,29.5c-3,2-6.6,3.3-9.9,5.1c-0.3-0.4-0.6-0.7-1-1.1c0.5-1.4,0.8-3,1.6-4.3c4.6-6.5,9-13.1,14.1-19.2
			c5.9-7,11.9-14,18.6-20.2c7.3-6.7,15.4-12.4,23.1-18.7c10.9-8.9,21.6-17.8,32.1-27.1c5.9-5.2,11.6-10.9,13.4-18.9
			c1.4-6.1-1.8-14.7-10.9-11.5c-4.6,1.6-9.5,3.4-12.8,6.7c-11,10.9-21.6,22.1-31.7,33.9c-9.6,11.2-19,22.6-30.6,31.8
			c-8.5,6.8-17,13.6-25.5,20.4c-17.9,14.4-35.7,29.1-53.9,43.2c-8.7,6.8-18.4,12.5-27.6,18.6c-1,0.6-2.6,0.4-4,0.5
			c0.2-1.5,0.1-3.2,0.8-4.6c5.9-10,11.9-20.1,17.7-30.1c11.7-19.9,24.4-38.9,39.9-56.1c1.5-1.7,4.1-3,6.3-3.4c16-2.8,32-3.7,48.1,0
			c3.5,0.8,7.3,1,9.6-2.5c2.6-4.1,3.4-8.3,0.8-13c-2.2-4.1-5.6-5.2-9.6-4.8c-8.8,1-17.6,2.1-26.4,3.5c-14,2.2-28.1,4.6-42,7.3
			c-13.6,2.7-27.3,5.6-40.7,9.3C50.4,87.4,34.2,93,17.9,98.4c-4.4,1.5-8.4,4-12.7,6c0.2,0.5,0.4,1,0.6,1.6c1.7,0,3.4,0.2,5.2-0.1
			c13.5-2.4,27.1-4.9,40.5-7.6c12.8-2.6,25.4-5.7,38.1-8.4c2.7-0.6,5.6-0.7,8.4-1c0.2,0.4,0.4,0.8,0.5,1.3c-0.7,1.2-1.4,2.4-2.2,3.5
			c-6.5,9.8-13.5,19.5-19.5,29.7c-10.4,18-20.4,36.4-30.2,54.9c-2.9,5.6-5.8,11.5-7.2,17.5c-0.7,2.9,1,7.4,3.2,9.7
			c2.5,2.7,5.9,0.3,8.6-1.8c3.4-2.7,7-5.3,10.6-7.8c5.6-3.9,11.4-7.6,16.9-11.4c7.1-4.8,14.3-9.5,21.2-14.6
			c7.3-5.3,14.3-10.9,21.5-16.3c5.8-4.4,11.7-8.7,17.4-13.1c0.6,1.8,0.5,3.2,0,4.5c-1.6,3.9-3.3,7.6-5,11.5
			c-1.8,4.3-0.4,7.9,2.7,10.9c3.1,3,6.6,1.2,9.4-0.5c7.9-4.8,15.7-9.9,23.5-14.9c13.5-8.6,26.9-17.2,40.5-25.8
			c1.4-0.9,3.5-0.7,5.3-0.9c-0.3,1.6-0.4,3.3-0.8,5c-0.4,1.5-1.4,2.9-1.8,4.6c-1.8,6.5-4.5,13-5,19.6c-0.8,8.9,4,12.8,13,11.6
			c15.1-2,28.4-9.2,41.4-16.4c13.8-7.7,27.1-16.3,40.5-24.7c2.8-1.8,5.3-1.4,7.3,0.4c7.4,6.7,10.9,10.5,5.7,21.6
			c-1.3,2.8-2.7,5.6-3.7,8.5c-1.2,4.1-0.1,7.8,3.4,10.2c3.3,2.2,6.1,0,8.9-1.7c15.5-9.5,30.9-19.1,46.5-28.5
			c3.4-2.1,7.2-3.7,11.8-5.9c-0.3,2.7-0.5,4.3-0.6,5.8c-0.3,5.1,2.7,9,7.6,8c7.3-1.4,14.6-3.4,21.5-6.3c7.9-3.2,15.3-7.8,23-11.5
			c0.9-0.4,3.8,0.7,4,1.5c2.6,10.4,11.1,13.4,20.1,14.9c11.4,1.9,22.5-0.4,33.3-4c13.2-4.3,26.2-9.1,39.1-14
			c3.5-1.3,4.4-0.7,5.3,2.9c1,4,2.8,8.2,5.7,11.2c4.6,4.7,11.3,4.5,17.2,4.3c17-0.7,33.4-4.8,49.4-10.3c5-1.7,9.6-3.1,15-0.8
			c2.8,1.2,6.4,1.1,9.6,1c20.2-0.5,38.9-7.1,57.4-14.3c22.3-8.6,43.1-20.1,63.1-33.2c3.5-2.3,7.1-4.4,11.5-2
			c8.2,4.5,16.4,8.8,24.5,13.3c5.1,2.8,6.9,6.9,6.1,13c-1,8,0.6,10.5,7.2,13.5c3.7,1.6,7.4,3.1,11.3,4c11.1,2.4,22.1,4.4,33.2,6.6
			c21.5,4.3,42.9,9.4,63.1,18.2c1.7,0.7,3.8,1.1,6.7,1.9C916.1,150.9,915.7,150.3,915.2,149.8z M628.8,29.8
			c-0.9,5.6-4.6,8.9-7.8,12.3c-14.9,15.5-32.1,28.2-50,40.1c-0.7,0.5-1.5,0.7-2.4,1.1C568.9,74.4,618.1,30.3,628.8,29.8z
			 M453.2,95.6c2.4-3,4.6-6.3,7.2-9c9.4-9.7,20.3-17.6,32.8-23c4-1.7,8.1-2.7,12.3-3.9c1-0.3,2.3,0.5,3.5,0.8
			c-0.4,1.3-0.5,3.1-1.4,3.8c-7.9,5.7-15.7,11.6-23.9,16.7C476,85.8,467.9,90,460,94.3c-1.8,1-4,1.6-5.9,2.4
			C453.8,96.4,453.5,96.1,453.2,95.6z M630.2,108.2c0.6-7.4,24.2-25,32.2-23.9C662.6,90.7,638,108.9,630.2,108.2z M763.8,66.7
			c-1-0.1-1.8-2.1-2.7-3.3c1.7-1.1,3.5-2.3,5.3-3.4c0.7,1.2,1.5,2.3,2.8,4.5C766.7,65.5,765.2,66.8,763.8,66.7z"/>
	</g>
</g>
<ellipse transform="matrix(0.4596 -0.8881 0.8881 0.4596 150.9393 401.0448)" class="st1" cx="405" cy="76.5" rx="9.1" ry="6.3"/>
</svg>
